<svg xmlns="http://www.w3.org/2000/svg" width="70" height="67.084" viewBox="0 0 70 67.084">
  <path id="social-media" d="M35,.5C15.663.5,0,15.9,0,34.893A34.451,34.451,0,0,0,23.931,67.525c1.75.324,2.392-.741,2.392-1.654,0-.817-.029-2.981-.044-5.848C16.543,62.1,14.49,55.409,14.49,55.409,12.9,51.44,10.6,50.378,10.6,50.378c-3.17-2.132.245-2.088.245-2.088,3.515.239,5.361,3.544,5.361,3.544,3.121,5.259,8.193,3.739,10.194,2.861a7.282,7.282,0,0,1,2.217-4.6c-7.773-.86-15.943-3.818-15.943-17a13.14,13.14,0,0,1,3.6-9.228c-.394-.869-1.575-4.366.306-9.1,0,0,2.931-.922,9.625,3.526a33.558,33.558,0,0,1,17.5,0c6.65-4.448,9.581-3.526,9.581-3.526a12.366,12.366,0,0,1,.35,9.1A13.193,13.193,0,0,1,57.222,33.1c0,13.213-8.181,16.12-15.969,16.966,1.225,1.032,2.363,3.141,2.363,6.364,0,4.6-.044,8.3-.044,9.418,0,.9.612,1.978,2.406,1.633A34.346,34.346,0,0,0,70,34.893C70,15.9,54.329.5,35,.5Z" transform="translate(0 -0.5)" fill="#212121"/>
</svg>
